Patient4_TMGait_0pt8_01_right_14_GRF.mot
version=1
nRows=45
nColumns=19
inDegrees=no
endheader
time	F1x	F1y	F1z	M1x	M1y	M1z	F2x	F2y	F2z	M2x	M2y	M2z	EC1x	EC1y	EC1z	EC2x	EC2y	EC2z
15.46	27.6949	720.5036	58.7101	-252.2667	-56.128	794.088	2.5771	-9.8902	6.4636	-3.096	-6.7434	-15.8933	-0.0592	0.0182	-0.0073	-0.0462	0.0165	0.9585
15.4711	24.4201	717.4948	59.2284	-250.8088	-56.4572	784.92	1.6474	-5.4193	4.493	-1.6515	-4.543	-9.0725	-0.0592	0.0182	-0.0073	-0.0462	0.0165	0.9585
15.4821	22.0097	714.8102	59.5865	-249.3259	-56.4551	775.9638	0.89711	-1.6768	2.7461	-0.40654	-2.6465	-3.3515	-0.0592	0.0182	-0.0073	-0.0462	0.0165	0.9585
15.4932	20.652	712.759	59.7412	-247.9677	-56.0546	767.8024	0.33381	1.1791	1.3612	0.56671	-1.176	1.035	-0.0592	0.0182	-0.0073	-0.0462	0.0165	0.9585
15.5043	20.3326	711.4562	59.7037	-246.818	-55.2689	760.6821	-0.025016	3.1781	0.36365	1.2648	-0.14499	4.1056	-0.0592	0.0182	-0.0073	-0.0462	0.0165	0.9585
15.5154	20.9459	710.832	59.5058	-245.8887	-54.1434	754.5475	-0.25104	4.4605	-0.28309	1.7241	0.51077	6.0681	-0.0592	0.0182	-0.0073	-0.0462	0.0165	0.9585
15.5264	22.3164	710.7175	59.2025	-245.142	-52.7612	749.184	-0.34307	5.1717	-0.66324	1.9909	0.87895	7.1267	-0.0592	0.0182	-0.0073	-0.0462	0.0165	0.9585
15.5375	24.3211	710.9137	58.8653	-244.5181	-51.2104	744.345	-0.38275	5.4526	-0.85363	2.1077	1.0561	7.517	-0.0592	0.0182	-0.0073	-0.0462	0.0165	0.9585
15.5486	26.8292	711.2821	58.5526	-243.9646	-49.5695	739.8409	-0.36282	5.3861	-0.93091	2.0979	1.1184	7.3743	-0.0592	0.0182	-0.0073	-0.0462	0.0165	0.9585
15.5596	29.7829	711.7728	58.3497	-243.4492	-47.9193	735.5642	-0.34346	5.0292	-0.95282	1.972	1.1394	6.825	-0.0592	0.0182	-0.0073	-0.0462	0.0165	0.9585
15.5707	33.159	712.4839	58.3107	-242.9785	-46.3012	731.5815	-0.30969	4.3462	-0.96618	1.7105	1.1665	5.8297	-0.0592	0.0182	-0.0073	-0.0462	0.0165	0.9585
15.5818	36.9552	713.6607	58.5286	-242.6036	-44.7924	728.1023	-0.29811	3.3073	-0.99334	1.2905	1.2275	4.3782	-0.0592	0.0182	-0.0073	-0.0462	0.0165	0.9585
15.5929	41.1492	715.719	59.0842	-242.4338	-43.4682	725.5569	-0.27555	1.816	-1.0404	0.67282	1.3112	2.3544	-0.0592	0.0182	-0.0073	-0.0462	0.0165	0.9585
15.6039	45.7096	719.1824	60.0642	-242.6162	-42.414	724.4747	-0.25525	-0.15998	-1.0944	-0.16012	1.3937	-0.2695	-0.0592	0.0182	-0.0073	-0.0462	0.0165	0.9585
15.615	50.5175	724.5448	61.5556	-243.2925	-41.7388	725.3843	-0.18214	-2.6229	-1.1215	-1.2013	1.4079	-3.5072	-0.0592	0.0182	-0.0073	-0.0462	0.0165	0.9585
15.6261	55.4418	732.1239	63.6043	-244.5508	-41.5241	728.6365	-0.056275	-5.3897	-1.0735	-2.3715	1.2804	-7.1142	-0.0592	0.0182	-0.0073	-0.0462	0.0165	0.9585
15.6371	60.2543	741.8659	66.2221	-246.3629	-41.8495	734.21	0.16767	-8.0683	-0.86469	-3.4959	0.88549	-10.5945	-0.0592	0.0182	-0.0073	-0.0462	0.0165	0.9585
15.6482	64.7418	753.2328	69.3397	-248.5486	-42.7257	741.5973	0.50472	-9.9369	-0.40262	-4.2584	0.094235	-13.0108	-0.0592	0.0182	-0.0073	-0.0462	0.0165	0.9585
15.6593	68.6882	765.1203	72.8145	-250.7569	-44.1036	749.7545	0.98037	-9.8471	0.43154	-4.1572	-1.2477	-12.8854	-0.0592	0.0182	-0.0073	-0.0462	0.0165	0.9585
15.6704	71.9384	776.0328	76.4052	-252.5264	-45.8274	757.2285	1.5808	-6.1598	1.7414	-2.4823	-3.2542	-8.0832	-0.0592	0.0182	-0.0073	-0.0462	0.0165	0.9585
15.6814	74.4341	784.3103	79.7903	-253.3639	-47.6407	762.4235	2.2622	3.2338	3.5981	1.6754	-5.9787	4.1518	-0.0592	0.0182	-0.0073	-0.0462	0.0165	0.9585
15.6925	76.2211	788.3795	82.6106	-252.8272	-49.2192	763.8025	2.8986	20.8133	5.9777	9.3658	-9.3206	27.0438	-0.0592	0.0182	-0.0073	-0.0462	0.0165	0.9585
15.7036	77.4383	786.9341	84.4853	-250.5812	-50.1885	760.0766	3.2547	49.0246	8.7136	21.6127	-12.9365	63.7815	-0.0592	0.0182	-0.0073	-0.0462	0.0165	0.9585
15.7146	78.2776	778.9014	85.1008	-246.3818	-50.2142	750.1684	2.8883	89.7543	11.398	39.1763	-16.072	116.8296	-0.0592	0.0182	-0.0073	-0.0462	0.0165	0.9585
15.7257	78.8532	763.3266	84.1971	-240.0245	-49.0282	733.1185	0.90728	143.4114	13.3557	62.157	-17.4356	186.7342	-0.0592	0.0182	-0.0073	-0.0462	0.0165	0.9585
15.7368	79.1482	739.1087	81.6373	-231.2425	-46.5081	707.8819	-3.9936	207.7043	13.5581	89.4764	-15.1205	270.4864	-0.0592	0.0182	-0.0073	-0.0462	0.0165	0.9585
15.7479	78.866	705.0197	77.3586	-219.6982	-42.6879	673.355	-12.8534	276.9376	10.6766	118.6129	-7.1035	360.6616	-0.0592	0.0182	-0.0073	-0.0462	0.0165	0.9585
15.7589	77.5137	660.0033	71.3988	-205.0762	-37.7655	628.6567	-24.7351	343.8578	3.9908	146.4832	6.9301	447.646	-0.0592	0.0182	-0.0073	-0.0462	0.0165	0.9585
15.77	74.5317	603.8971	63.9491	-187.3006	-32.1004	573.7725	-37.6834	404.2838	-5.6952	171.3212	25.0915	525.7416	-0.0592	0.0182	-0.0073	-0.0462	0.0165	0.9585
15.7811	69.4472	537.8157	55.3994	-166.6612	-26.192	509.8737	-50.1792	457.7832	-17.0687	192.9777	45.0504	594.1146	-0.0592	0.0182	-0.0073	-0.0462	0.0165	0.9585
15.7921	62.0985	464.1526	46.3613	-143.8219	-20.6266	439.2715	-60.974	505.914	-28.9292	212.1629	64.7806	654.5964	-0.0592	0.0182	-0.0073	-0.0462	0.0165	0.9585
15.8032	52.6439	386.3507	37.4497	-119.7684	-15.8768	365.2106	-69.2583	550.4817	-40.0994	229.7191	82.4626	709.5264	-0.0592	0.0182	-0.0073	-0.0462	0.0165	0.9585
15.8143	41.6082	308.528	29.2168	-95.7095	-12.2464	291.5083	-74.5827	592.5599	-49.6162	246.1694	96.7385	760.3488	-0.0592	0.0182	-0.0073	-0.0462	0.0165	0.9585
15.8254	29.8485	234.9903	22.0259	-72.9426	-9.7697	222.141	-77.0401	631.9479	-57.0492	261.4867	107.1009	806.9931	-0.0592	0.0182	-0.0073	-0.0462	0.0165	0.9585
15.8364	18.542	169.5496	16.0602	-52.6446	-8.2243	160.5656	-77.0274	667.6007	-62.3972	275.2629	113.7395	848.33	-0.0592	0.0182	-0.0073	-0.0462	0.0165	0.9585
15.8475	8.8518	114.7759	11.309	-35.6286	-7.2187	109.0879	-75.1985	698.2307	-66.0574	286.9558	117.4215	882.9767	-0.0592	0.0182	-0.0073	-0.0462	0.0165	0.9585
15.8586	1.5673	71.624	7.6506	-22.2128	-6.384	68.4944	-72.168	722.6669	-68.489	296.0863	118.9964	909.6893	-0.0592	0.0182	-0.0073	-0.0462	0.0165	0.9585
15.8696	-3.1183	39.6661	4.895	-12.2784	-5.4859	38.363	-68.4787	740.2931	-70.1222	302.3987	119.2297	927.8821	-0.0592	0.0182	-0.0073	-0.0462	0.0165	0.9585
15.8807	-5.4249	17.6049	2.8409	-5.4283	-4.4243	17.479	-64.5584	750.9699	-71.222	305.8635	118.6377	937.522	-0.0592	0.0182	-0.0073	-0.0462	0.0165	0.9585
15.8918	-5.9203	3.7186	1.3601	-1.1246	-3.2758	4.271	-60.7549	755.1541	-71.8278	306.6995	117.4336	939.2805	-0.0592	0.0182	-0.0073	-0.0462	0.0165	0.9585
15.9029	-5.3327	-3.8637	0.38886	1.2182	-2.2241	-2.9988	-57.2577	753.768	-71.9121	305.3179	115.6782	934.322	-0.0592	0.0182	-0.0073	-0.0462	0.0165	0.9585
15.9139	-4.257	-6.9816	-0.15532	2.1757	-1.3898	-6.0331	-54.1876	748.1187	-71.3972	302.28	113.3429	924.2708	-0.0592	0.0182	-0.0073	-0.0462	0.0165	0.9585
15.925	-3.0679	-7.2733	-0.39757	2.2576	-0.78603	-6.3825	-51.525	739.7367	-70.3208	298.2199	110.4814	910.9746	-0.0592	0.0182	-0.0073	-0.0462	0.0165	0.9585
15.9361	-1.9884	-5.9842	-0.44437	1.8543	-0.39141	-5.2151	-49.3084	730.1	-68.8246	293.7333	107.2797	896.208	-0.0592	0.0182	-0.0073	-0.0462	0.0165	0.9585
15.9471	-1.1166	-4.0233	-0.37787	1.2469	-0.16504	-3.4061	-47.4978	720.4336	-67.1583	289.3014	104.0206	881.405	-0.0592	0.0182	-0.0073	-0.0462	0.0165	0.9585
